<svg xmlns="http://www.w3.org/2000/svg" viewBox="0 0 512 512" fill="none">
  <defs>
    <linearGradient id="g" x1="44" y1="36" x2="454" y2="470" gradientUnits="userSpaceOnUse">
      <stop stop-color="#86DEFF" />
      <stop offset="1" stop-color="#5B6DFF" />
    </linearGradient>
  </defs>
  <rect x="20" y="20" width="472" height="472" rx="120" fill="#0A1020" />
  <rect x="20" y="20" width="472" height="472" rx="120" fill="url(#g)" fill-opacity="0.28" />
  <path d="M120 208h60v-34c0-22 18-40 40-40h72c22 0 40 18 40 40v34h60c22 0 40 18 40 40v16c0 22-18 40-40 40h-60v34c0 22-18 40-40 40h-72c-22 0-40-18-40-40v-34h-60c-22 0-40-18-40-40v-16c0-22 18-40 40-40Zm76 0h120v-34a8 8 0 0 0-8-8h-104a8 8 0 0 0-8 8v34Zm120 136v-40h-120v40a8 8 0 0 0 8 8h104a8 8 0 0 0 8-8Z" fill="#F5FBFF"/>
</svg>